<svg width="24" height="24" viewBox="0 0 24 24" fill="none" xmlns="http://www.w3.org/2000/svg">
<path fill-rule="evenodd" clip-rule="evenodd" d="M11.5613 2.03568e-07H11.4387C9.44349 -1.17964e-05 7.86307 -3.57032e-05 6.6262 0.17094C5.35329 0.346896 4.323 0.717636 3.51049 1.55302C2.69799 2.3884 2.3374 3.4477 2.16626 4.75644C1.99996 6.02812 1.99999 7.65301 2 9.7044V14.2955C1.99999 16.347 1.99996 17.9719 2.16626 19.2436C2.3374 20.5523 2.69799 21.6116 3.51049 22.447C4.323 23.2824 5.35329 23.6531 6.6262 23.829C7.86306 24 9.44349 24 11.4387 24H11.5613C13.5565 24 15.137 24 16.3739 23.829C17.6467 23.6531 18.677 23.2824 19.4895 22.447C20.302 21.6116 20.6626 20.5523 20.8338 19.2436C21 17.9719 21 16.347 21 14.2956V9.70452C21 7.65305 21 6.02812 20.8338 4.75644C20.6626 3.4477 20.302 2.3884 19.4895 1.55302C18.677 0.717636 17.6467 0.346896 16.3739 0.17094C15.137 -3.57032e-05 13.5565 -1.17964e-05 11.5613 2.03568e-07ZM7.42857 19.8139C7.42857 19.3516 7.79314 18.9768 8.24285 18.9768H14.7572C15.2069 18.9768 15.5715 19.3516 15.5715 19.8139C15.5715 20.2763 15.2069 20.6512 14.7572 20.6512H8.24285C7.79314 20.6512 7.42857 20.2763 7.42857 19.8139Z" fill="url(#paint0_radial_3790_2)"/>
<defs>
<radialGradient id="paint0_radial_3790_2" cx="0" cy="0" r="1" gradientUnits="userSpaceOnUse" gradientTransform="translate(2.5 0.499999) rotate(51.1886) scale(29.5169 23.3676)">
<stop stop-color="#10B981"/>
<stop offset="1" stop-color="#0F766E"/>
</radialGradient>
</defs>
</svg>
